<svg width="69" height="53" viewBox="0 0 69 53" fill="none" xmlns="http://www.w3.org/2000/svg">
<path d="M13.8379 20.0873L11.1063 10.9324L8.45321 20.0873H6.62921L2.8154 8.02618C2.77467 7.89818 2.71067 7.79636 2.6234 7.72073C2.54194 7.63927 2.43721 7.58109 2.30921 7.54618L1.27067 7.27564V6.368H6.49831V7.27564L4.75285 7.62473L7.85103 18.0451L10.4954 9.04727L10.1463 8.02618C10.1056 7.89818 10.0416 7.79636 9.95431 7.72073C9.87285 7.64509 9.76812 7.58691 9.64012 7.54618L8.74994 7.27564V6.368H13.8379V7.27564L12.0489 7.62473L15.0685 18.0189L17.9921 7.62473L16.2379 7.27564V6.368H20.7587V7.27564L19.6939 7.54618C19.5659 7.58109 19.4583 7.63345 19.371 7.70327C19.2838 7.77309 19.2169 7.88364 19.1703 8.03491L15.6707 20.0873H13.8379ZM26.8837 18.9702C27.3027 18.9702 27.7274 18.8916 28.1579 18.7345C28.5885 18.5716 28.955 18.3651 29.2576 18.1149V15.7847L27.5907 15.9331C26.8867 15.9913 26.3456 16.1513 25.9674 16.4131C25.595 16.6749 25.4088 17.0735 25.4088 17.6087C25.4088 18.0393 25.5281 18.3738 25.7667 18.6124C26.011 18.8509 26.3834 18.9702 26.8837 18.9702ZM30.9157 20.1484C30.4968 20.1484 30.1536 20.0436 29.8859 19.8342C29.6183 19.6189 29.4321 19.3076 29.3274 18.9004C28.9608 19.296 28.5041 19.6131 27.9572 19.8516C27.4103 20.0844 26.8256 20.2007 26.203 20.2007C25.8074 20.2007 25.4379 20.1484 25.0947 20.0436C24.7514 19.9389 24.4547 19.7876 24.2045 19.5898C23.9601 19.3862 23.7652 19.136 23.6197 18.8393C23.4801 18.5367 23.4103 18.1935 23.4103 17.8095C23.4103 17.3033 23.5267 16.8785 23.7594 16.5353C23.9921 16.192 24.2917 15.9156 24.6583 15.7062C25.0307 15.4967 25.4437 15.3396 25.8976 15.2349C26.3572 15.1302 26.8081 15.0604 27.2503 15.0255L29.2576 14.8596V13.6815C29.2576 12.7855 29.0772 12.1542 28.7165 11.7876C28.3616 11.4211 27.8176 11.2378 27.0845 11.2378C26.5317 11.2378 26.0081 11.3309 25.5136 11.5171C25.0248 11.6975 24.571 11.9825 24.1521 12.3724L23.707 11.9273C23.8176 11.5956 23.9979 11.3018 24.2481 11.0458C24.4983 10.784 24.7921 10.5658 25.1296 10.3913C25.4728 10.2167 25.8568 10.0858 26.2816 9.99855C26.7063 9.90545 27.1485 9.85891 27.6081 9.85891C28.7659 9.85891 29.6357 10.1527 30.2176 10.7404C30.7994 11.3222 31.0903 12.2153 31.0903 13.4196V18.3593C31.0903 18.5455 31.131 18.6822 31.2125 18.7695C31.2997 18.8509 31.4248 18.9004 31.5877 18.9178L32.5914 19.0051V19.8342C32.4459 19.8865 32.1987 19.9505 31.8496 20.0262C31.5063 20.1076 31.195 20.1484 30.9157 20.1484ZM37.9068 17.5302V11.3425L36.397 11.1505V10.3215L37.5054 10.1731C37.6625 10.1498 37.7817 10.0975 37.8632 10.016C37.9446 9.93455 38.0057 9.82109 38.0465 9.67564L38.6661 7.10982H39.7483L39.7745 10.0771H43.0385V11.2727H39.7832V16.9105C39.7832 17.6669 39.9112 18.1731 40.1672 18.4291C40.429 18.6851 40.781 18.8131 41.2232 18.8131C41.5897 18.8131 41.9272 18.7462 42.2356 18.6124C42.5497 18.4785 42.8203 18.2865 43.0472 18.0364L43.5883 18.5338C43.3265 19.0749 42.9221 19.488 42.3752 19.7731C41.8341 20.0524 41.2348 20.192 40.5774 20.192C40.2225 20.192 39.8821 20.1513 39.5563 20.0698C39.2305 19.9884 38.9454 19.8487 38.701 19.6509C38.4625 19.4473 38.2705 19.1738 38.125 18.8305C37.9796 18.4873 37.9068 18.0538 37.9068 17.5302ZM51.9754 10.8015C51.347 10.8015 50.8263 11.0196 50.4132 11.456C50.0001 11.8865 49.7325 12.576 49.6103 13.5244H54.0001C54.0059 13.4604 54.0117 13.3964 54.0176 13.3324C54.0234 13.2625 54.0263 13.1898 54.0263 13.1142C54.0263 12.4335 53.8488 11.8778 53.4939 11.4473C53.139 11.0167 52.6328 10.8015 51.9754 10.8015ZM55.859 17.8356C55.6263 18.5396 55.1725 19.1127 54.4976 19.5549C53.8226 19.9913 52.9848 20.2095 51.9841 20.2095C51.2394 20.2095 50.5877 20.0844 50.0292 19.8342C49.4765 19.5782 49.0168 19.2262 48.6503 18.7782C48.2896 18.3302 48.019 17.7949 47.8386 17.1724C47.6583 16.5498 47.5681 15.872 47.5681 15.1389C47.5681 14.3069 47.6786 13.5593 47.8997 12.896C48.1208 12.2327 48.435 11.6742 48.8423 11.2204C49.2496 10.7607 49.7412 10.4116 50.3172 10.1731C50.8932 9.92873 51.5332 9.80655 52.2372 9.80655C52.7783 9.80655 53.2728 9.88218 53.7208 10.0335C54.1688 10.1789 54.5528 10.3942 54.8728 10.6793C55.1928 10.9644 55.4401 11.3222 55.6146 11.7527C55.795 12.1833 55.8852 12.6807 55.8852 13.2451C55.8852 13.408 55.8765 13.6058 55.859 13.8385C55.8416 14.0655 55.8183 14.2691 55.7892 14.4495H49.5405C49.5405 14.4902 49.5405 14.5338 49.5405 14.5804C49.5405 14.6269 49.5405 14.6735 49.5405 14.72C49.5405 15.5055 49.6161 16.1687 49.7674 16.7098C49.9186 17.2451 50.1252 17.6756 50.387 18.0015C50.6488 18.3215 50.9601 18.5513 51.3208 18.6909C51.6816 18.8305 52.0714 18.9004 52.4903 18.9004C53.0605 18.9004 53.587 18.7724 54.0699 18.5164C54.5586 18.2604 54.9456 17.9142 55.2306 17.4778L55.859 17.8356ZM66.1764 19.136V20H60.5037V19.1098L61.5772 18.944C61.7284 18.9207 61.8448 18.8655 61.9263 18.7782C62.0135 18.6851 62.0572 18.5629 62.0572 18.4116V11.9447C62.0572 11.7702 62.0193 11.6335 61.9437 11.5345C61.8739 11.4356 61.7546 11.3745 61.5859 11.3513L60.3815 11.1767V10.3215C60.8412 10.1818 61.3386 10.0713 61.8739 9.98982C62.4092 9.90836 62.9037 9.86473 63.3575 9.85891L63.6543 10.1382L63.855 11.7353C64.0353 11.4851 64.2506 11.2436 64.5008 11.0109C64.751 10.7782 65.0186 10.5745 65.3037 10.4C65.5888 10.2196 65.8884 10.0771 66.2026 9.97236C66.5226 9.86182 66.8397 9.80655 67.1539 9.80655C67.3343 9.80655 67.5408 9.82691 67.7735 9.86764C68.0063 9.90836 68.1953 9.96655 68.3408 10.0422C68.3815 10.5309 68.3815 11.0836 68.3408 11.7004C68.3059 12.3171 68.2361 12.8785 68.1313 13.3847H67.215L66.9619 12.032C66.9212 11.84 66.8543 11.7062 66.7612 11.6305C66.6739 11.5549 66.543 11.5171 66.3684 11.5171C65.9612 11.5113 65.5423 11.5927 65.1117 11.7615C64.687 11.9302 64.2913 12.1978 63.9248 12.5644V18.4116C63.9248 18.5687 63.9655 18.6938 64.047 18.7869C64.1343 18.8742 64.2564 18.9265 64.4135 18.944L66.1764 19.136Z" fill="white"/>
<path d="M12.7408 40.6305C12.1182 40.6305 11.5801 40.4909 11.1262 40.2116C10.6724 39.9382 10.2506 39.6153 9.86078 39.2429C9.47678 38.8705 9.09278 38.4924 8.70878 38.1084C8.32478 37.7302 7.89132 37.4364 7.40841 37.2269C6.47751 37.2211 5.65714 37.0582 4.94732 36.7382C4.24332 36.4182 3.65569 35.9644 3.18441 35.3767C2.71896 34.7891 2.36696 34.0735 2.12841 33.2298C1.88987 32.3862 1.7706 31.4436 1.7706 30.4022C1.7706 29.2444 1.91605 28.2145 2.20696 27.3127C2.50369 26.4051 2.91678 25.6458 3.44623 25.0349C3.98151 24.424 4.62732 23.9585 5.38369 23.6385C6.14005 23.3127 6.98078 23.1498 7.90587 23.1498C8.8426 23.1498 9.66587 23.3098 10.3757 23.6298C11.0913 23.944 11.6819 24.3949 12.1473 24.9825C12.6186 25.5702 12.9735 26.2858 13.2121 27.1295C13.4506 27.9731 13.5699 28.9156 13.5699 29.9571C13.5699 31.8131 13.1946 33.3433 12.4441 34.5476C11.6935 35.7462 10.6782 36.5462 9.39823 36.9476C9.71241 37.0756 10.0062 37.224 10.2797 37.3927C10.5531 37.5673 10.8208 37.7505 11.0826 37.9425C11.519 38.2625 11.9553 38.5418 12.3917 38.7804C12.8281 39.0247 13.3313 39.1469 13.9015 39.1469C14.047 39.1469 14.1895 39.1411 14.3291 39.1295C14.4746 39.1236 14.6026 39.112 14.7131 39.0945L14.9226 39.9236C14.7422 40.0691 14.4513 40.2233 14.0499 40.3862C13.6484 40.5491 13.2121 40.6305 12.7408 40.6305ZM7.68769 24.1796C6.48914 24.1796 5.55823 24.6713 4.89496 25.6545C4.23169 26.632 3.90005 28.1476 3.90005 30.2015C3.90005 32.1796 4.21132 33.672 4.83387 34.6785C5.45641 35.6851 6.39023 36.1884 7.63532 36.1884C8.82805 36.1884 9.75605 35.6938 10.4193 34.7047C11.0884 33.7156 11.423 32.1913 11.423 30.1316C11.423 28.1593 11.1117 26.6756 10.4891 25.6807C9.87241 24.68 8.9386 24.1796 7.68769 24.1796ZM24.5424 37.1484C24.0828 37.1484 23.725 37.0291 23.469 36.7905C23.213 36.552 23.0355 36.2436 22.9366 35.8655C22.5526 36.2611 22.1104 36.584 21.6101 36.8342C21.1097 37.0785 20.5162 37.2007 19.8297 37.2007C18.7417 37.2007 17.9504 36.9011 17.4559 36.3018C16.9671 35.6967 16.7228 34.7833 16.7228 33.5615V28.8749C16.7228 28.7295 16.685 28.6102 16.6093 28.5171C16.5395 28.4182 16.4261 28.3571 16.269 28.3338L15.1781 28.1418V27.2865C15.661 27.1469 16.1846 27.0451 16.749 26.9811C17.3133 26.9113 17.8341 26.8705 18.3111 26.8589L18.5904 27.1382V33.2385C18.5904 34.1695 18.7242 34.8531 18.9919 35.2895C19.2595 35.7258 19.7599 35.944 20.493 35.944C20.9235 35.944 21.3366 35.8742 21.7322 35.7345C22.1337 35.5949 22.509 35.3796 22.8581 35.0887V28.8749C22.8581 28.7236 22.8173 28.6015 22.7359 28.5084C22.6602 28.4095 22.5468 28.3484 22.3955 28.3251L21.0951 28.1156V27.2604C21.5897 27.1324 22.1482 27.0335 22.7708 26.9636C23.3933 26.8938 23.9519 26.8589 24.4464 26.8589L24.7257 27.1382V35.3505C24.7257 35.5542 24.7722 35.6967 24.8653 35.7782C24.9584 35.8538 25.0806 35.9004 25.2319 35.9178L26.2268 36.0051V36.8342C26.0348 36.8982 25.7759 36.9651 25.4501 37.0349C25.1242 37.1105 24.8217 37.1484 24.5424 37.1484ZM31.1559 35.9702C31.5748 35.9702 31.9996 35.8916 32.4301 35.7345C32.8607 35.5716 33.2272 35.3651 33.5298 35.1149V32.7847L31.8628 32.9331C31.1588 32.9913 30.6178 33.1513 30.2396 33.4131C29.8672 33.6749 29.681 34.0735 29.681 34.6087C29.681 35.0393 29.8003 35.3738 30.0388 35.6124C30.2832 35.8509 30.6556 35.9702 31.1559 35.9702ZM35.1879 37.1484C34.769 37.1484 34.4258 37.0436 34.1581 36.8342C33.8905 36.6189 33.7043 36.3076 33.5996 35.9004C33.233 36.296 32.7763 36.6131 32.2294 36.8516C31.6825 37.0844 31.0978 37.2007 30.4752 37.2007C30.0796 37.2007 29.7101 37.1484 29.3668 37.0436C29.0236 36.9389 28.7268 36.7876 28.4767 36.5898C28.2323 36.3862 28.0374 36.136 27.8919 35.8393C27.7523 35.5367 27.6825 35.1935 27.6825 34.8095C27.6825 34.3033 27.7988 33.8785 28.0316 33.5353C28.2643 33.192 28.5639 32.9156 28.9305 32.7062C29.3028 32.4967 29.7159 32.3396 30.1698 32.2349C30.6294 32.1302 31.0803 32.0604 31.5225 32.0255L33.5298 31.8596V30.6815C33.5298 29.7855 33.3494 29.1542 32.9887 28.7876C32.6338 28.4211 32.0898 28.2378 31.3567 28.2378C30.8039 28.2378 30.2803 28.3309 29.7858 28.5171C29.297 28.6975 28.8432 28.9825 28.4243 29.3724L27.9792 28.9273C28.0898 28.5956 28.2701 28.3018 28.5203 28.0458C28.7705 27.784 29.0643 27.5658 29.4018 27.3913C29.745 27.2167 30.129 27.0858 30.5538 26.9985C30.9785 26.9055 31.4207 26.8589 31.8803 26.8589C33.0381 26.8589 33.9079 27.1527 34.4898 27.7404C35.0716 28.3222 35.3625 29.2153 35.3625 30.4196V35.3593C35.3625 35.5455 35.4032 35.6822 35.4847 35.7695C35.5719 35.8509 35.697 35.9004 35.8599 35.9178L36.8636 36.0051V36.8342C36.7181 36.8865 36.4708 36.9505 36.1218 37.0262C35.7785 37.1076 35.4672 37.1484 35.1879 37.1484ZM41.435 21.5876V35.4116C41.435 35.5687 41.4757 35.6909 41.5572 35.7782C41.6386 35.8655 41.755 35.9207 41.9063 35.944L43.1717 36.1273V37H37.8219V36.1098L39.0874 35.944C39.2386 35.9207 39.355 35.8655 39.4365 35.7782C39.5237 35.6909 39.5674 35.5716 39.5674 35.4204V23.3244C39.5674 23.1673 39.5237 23.0451 39.4365 22.9578C39.355 22.8705 39.2386 22.8153 39.0874 22.792L37.7608 22.6087V21.8058C38.011 21.7302 38.2816 21.6633 38.5725 21.6051C38.8634 21.5469 39.1572 21.4975 39.4539 21.4567C39.7565 21.416 40.0532 21.384 40.3441 21.3607C40.635 21.3316 40.9056 21.3142 41.1557 21.3084L41.435 21.5876ZM47.917 27.1382V35.3942C47.917 35.5513 47.9577 35.6764 48.0392 35.7695C48.1206 35.8625 48.237 35.9207 48.3883 35.944L49.4617 36.1098V37H44.4959V36.1098L45.5694 35.944C45.7206 35.9207 45.837 35.8625 45.9184 35.7695C46.0057 35.6764 46.0494 35.5542 46.0494 35.4029V28.9011C46.0494 28.744 46.0086 28.6189 45.9272 28.5258C45.8515 28.4327 45.7381 28.3745 45.5868 28.3513L44.3737 28.1767V27.3215C44.8741 27.1702 45.4181 27.0596 46.0057 26.9898C46.5934 26.9142 47.1374 26.8705 47.6377 26.8589L47.917 27.1382ZM48.0566 24.1535C48.0566 24.5258 47.9374 24.8313 47.6988 25.0698C47.4603 25.3025 47.149 25.4189 46.765 25.4189C46.381 25.4189 46.0697 25.3025 45.8312 25.0698C45.5926 24.8313 45.4734 24.5258 45.4734 24.1535C45.4734 23.7869 45.5926 23.4873 45.8312 23.2545C46.0697 23.0218 46.381 22.9055 46.765 22.9055C47.149 22.9055 47.4603 23.0218 47.6988 23.2545C47.9374 23.4873 48.0566 23.7869 48.0566 24.1535ZM52.1221 34.5302V28.3425L50.6123 28.1505V27.3215L51.7207 27.1731C51.8778 27.1498 51.997 27.0975 52.0785 27.016C52.16 26.9345 52.221 26.8211 52.2618 26.6756L52.8814 24.1098H53.9636L53.9898 27.0771H57.2538V28.2727H53.9985V33.9105C53.9985 34.6669 54.1265 35.1731 54.3825 35.4291C54.6443 35.6851 54.9963 35.8131 55.4385 35.8131C55.805 35.8131 56.1425 35.7462 56.4509 35.6124C56.765 35.4785 57.0356 35.2865 57.2625 35.0364L57.8036 35.5338C57.5418 36.0749 57.1374 36.488 56.5905 36.7731C56.0494 37.0524 55.4501 37.192 54.7927 37.192C54.4378 37.192 54.0974 37.1513 53.7716 37.0698C53.4458 36.9884 53.1607 36.8487 52.9163 36.6509C52.6778 36.4473 52.4858 36.1738 52.3403 35.8305C52.1949 35.4873 52.1221 35.0538 52.1221 34.5302ZM60.4896 41.512C60.1696 41.512 59.8321 41.4975 59.4772 41.4684C59.1281 41.4393 58.7849 41.3985 58.4474 41.3462V40.2465C59.134 40.1884 59.742 40.1011 60.2714 39.9847C60.8009 39.8742 61.2692 39.7025 61.6765 39.4698C62.0838 39.2371 62.4416 38.9229 62.75 38.5273C63.0641 38.1316 63.3492 37.6225 63.6052 37H62.7063L59.5383 28.6131C59.4918 28.4851 59.4249 28.3833 59.3376 28.3076C59.2503 28.232 59.1427 28.1767 59.0147 28.1418L58.2903 27.9411V27.0771L63.0118 27.0858V27.9498L61.5194 28.2029L64.1376 35.4727L66.4329 28.2029L65.0103 27.9411V27.0771H68.8067V27.9411L68.0911 28.1418C67.9514 28.1825 67.838 28.2378 67.7507 28.3076C67.6692 28.3775 67.6052 28.488 67.5587 28.6393L64.5827 37.3753C64.094 38.7891 63.5412 39.8305 62.9245 40.4996C62.3136 41.1745 61.502 41.512 60.4896 41.512Z" fill="white"/>
<path d="M21.0887 40.072V40.8662L19.8745 41.1029C19.7472 41.1284 19.6479 41.1818 19.5767 41.2633C19.5105 41.3447 19.4774 41.4516 19.4774 41.584V50.5185C19.4774 50.6509 19.5105 50.7578 19.5767 50.8393C19.6428 50.9207 19.7421 50.9742 19.8745 50.9996L21.0887 51.2211V52H16.1556V51.2211L17.3774 50.9996C17.5097 50.9742 17.609 50.9207 17.6752 50.8393C17.7414 50.7578 17.7745 50.6509 17.7745 50.5185V41.584C17.7745 41.4567 17.7388 41.3524 17.6676 41.2709C17.6014 41.1844 17.5047 41.1284 17.3774 41.1029L16.1556 40.8662V40.072H21.0887ZM25.6533 51.2211V52H21.4151V51.2211L22.3544 51.076C22.4867 51.0556 22.5885 51.0047 22.6598 50.9233C22.7362 50.8418 22.7744 50.7349 22.7744 50.6025V44.9135C22.7744 44.776 22.7387 44.6665 22.6674 44.5851C22.6013 44.5036 22.502 44.4527 22.3696 44.4324L21.3082 44.2796V43.5313C21.7205 43.404 22.1609 43.3073 22.6293 43.2411C23.1027 43.1698 23.5456 43.1316 23.958 43.1265L24.2253 43.3938L24.3398 44.3331C24.7624 43.8851 25.2384 43.5695 25.7678 43.3862C26.2973 43.2029 26.8344 43.1113 27.3791 43.1113C28.3922 43.1113 29.082 43.4065 29.4485 43.9971C29.8151 44.5876 29.9984 45.4098 29.9984 46.4636V50.6102C29.9984 50.7425 30.034 50.8495 30.1053 50.9309C30.1816 51.0073 30.2834 51.0556 30.4107 51.076L31.35 51.2211V52H27.1194V51.2211L27.9518 51.076C28.0689 51.0556 28.1656 51.0098 28.242 50.9385C28.3234 50.8622 28.3642 50.7527 28.3642 50.6102V46.7615C28.3642 45.9215 28.2496 45.2953 28.0205 44.8829C27.7914 44.4655 27.346 44.2567 26.6842 44.2567C26.282 44.2567 25.8849 44.3178 25.4929 44.44C25.1009 44.5622 24.7394 44.748 24.4085 44.9975V50.6025C24.4085 50.7349 24.4442 50.8418 24.5154 50.9233C24.5867 50.9996 24.686 51.0505 24.8133 51.076L25.6533 51.2211ZM35.4169 51.0607C35.7987 51.0607 36.1576 50.9971 36.4936 50.8698C36.8296 50.7425 37.1274 50.572 37.387 50.3582V44.356C37.2038 44.2491 36.9645 44.1575 36.6692 44.0811C36.379 44.0047 36.0736 43.9665 35.7529 43.9665C35.3965 43.9665 35.058 44.0276 34.7372 44.1498C34.4216 44.2669 34.1467 44.4655 33.9125 44.7455C33.6783 45.0255 33.4925 45.4022 33.355 45.8756C33.2176 46.3491 33.1489 46.9371 33.1489 47.6396C33.1489 48.3015 33.21 48.8538 33.3321 49.2967C33.4543 49.7345 33.6172 50.0858 33.8209 50.3505C34.0296 50.6102 34.2714 50.7935 34.5463 50.9004C34.8212 51.0073 35.1114 51.0607 35.4169 51.0607ZM38.8685 52.1298C38.4561 52.1298 38.138 52.0229 37.914 51.8091C37.695 51.5953 37.5449 51.328 37.4634 51.0073C37.1681 51.3331 36.799 51.6105 36.3561 51.8396C35.9183 52.0636 35.4067 52.1756 34.8212 52.1756C34.358 52.1756 33.915 52.0942 33.4925 51.9313C33.075 51.7684 32.711 51.5164 32.4005 51.1753C32.09 50.8291 31.843 50.3836 31.6598 49.8389C31.4765 49.2942 31.3849 48.6451 31.3849 47.8916C31.3849 47.0822 31.4918 46.3745 31.7056 45.7687C31.9245 45.1629 32.2274 44.6615 32.6143 44.2644C33.0063 43.8673 33.4772 43.572 34.027 43.3785C34.5769 43.18 35.1827 43.0807 35.8445 43.0807C36.1296 43.0807 36.4045 43.0985 36.6692 43.1342C36.934 43.1698 37.1732 43.2131 37.387 43.264V40.0338C37.387 39.8964 37.3489 39.7895 37.2725 39.7131C37.2012 39.6367 37.102 39.5884 36.9747 39.568L35.814 39.4076V38.7051C36.0329 38.6389 36.2696 38.5804 36.5241 38.5295C36.7787 38.4785 37.0358 38.4353 37.2954 38.3996C37.5601 38.364 37.8198 38.336 38.0743 38.3156C38.3289 38.2902 38.5656 38.2749 38.7845 38.2698L39.0212 38.5142V50.5567C39.0212 50.7349 39.062 50.8596 39.1434 50.9309C39.23 50.9971 39.3369 51.0378 39.4641 51.0531L40.3423 51.1295V51.8549C40.1692 51.9109 39.9401 51.9695 39.655 52.0305C39.37 52.0967 39.1078 52.1298 38.8685 52.1298ZM44.3224 43.9513C43.7726 43.9513 43.3169 44.1422 42.9555 44.524C42.594 44.9007 42.3599 45.504 42.2529 46.3338H46.094C46.0991 46.2778 46.1042 46.2218 46.1093 46.1658C46.1144 46.1047 46.1169 46.0411 46.1169 45.9749C46.1169 45.3793 45.9617 44.8931 45.6511 44.5164C45.3406 44.1396 44.8977 43.9513 44.3224 43.9513ZM47.7206 50.1062C47.5169 50.7222 47.1199 51.2236 46.5293 51.6105C45.9388 51.9924 45.2057 52.1833 44.33 52.1833C43.6784 52.1833 43.1082 52.0738 42.6195 51.8549C42.1359 51.6309 41.7337 51.3229 41.4129 50.9309C41.0973 50.5389 40.8606 50.0705 40.7028 49.5258C40.5449 48.9811 40.466 48.388 40.466 47.7465C40.466 47.0185 40.5628 46.3644 40.7562 45.784C40.9497 45.2036 41.2246 44.7149 41.5809 44.3178C41.9373 43.9156 42.3675 43.6102 42.8715 43.4015C43.3755 43.1876 43.9355 43.0807 44.5515 43.0807C45.0249 43.0807 45.4577 43.1469 45.8497 43.2793C46.2417 43.4065 46.5777 43.5949 46.8577 43.8444C47.1377 44.0938 47.354 44.4069 47.5068 44.7836C47.6646 45.1604 47.7435 45.5956 47.7435 46.0895C47.7435 46.232 47.7359 46.4051 47.7206 46.6087C47.7053 46.8073 47.6849 46.9855 47.6595 47.1433H42.1919C42.1919 47.1789 42.1919 47.2171 42.1919 47.2578C42.1919 47.2985 42.1919 47.3393 42.1919 47.38C42.1919 48.0673 42.258 48.6476 42.3904 49.1211C42.5228 49.5895 42.7035 49.9662 42.9326 50.2513C43.1617 50.5313 43.434 50.7324 43.7497 50.8545C44.0653 50.9767 44.4064 51.0378 44.7729 51.0378C45.2719 51.0378 45.7326 50.9258 46.1551 50.7018C46.5828 50.4778 46.9213 50.1749 47.1708 49.7931L47.7206 50.1062ZM51.2626 51.2287V52H47.6048V51.2287L48.3532 51.1295C48.4652 51.1091 48.5619 51.0785 48.6434 51.0378C48.7248 50.992 48.7986 50.9258 48.8648 50.8393L51.2474 47.7236L48.8954 44.5011C48.8343 44.4145 48.763 44.3484 48.6816 44.3025C48.6052 44.2516 48.5136 44.216 48.4066 44.1956L47.7957 44.0658V43.3175H51.7514V44.0658L50.6746 44.2644L52.3928 46.7691L54.2408 44.2644L53.1259 44.0658V43.3175H56.463V44.0658L55.791 44.1956C55.6841 44.216 55.5899 44.2516 55.5085 44.3025C55.4321 44.3484 55.3608 44.412 55.2946 44.4935L52.9808 47.4564L55.4856 50.8393C55.5517 50.9309 55.623 50.9996 55.6994 51.0455C55.7808 51.0913 55.8776 51.1218 55.9896 51.1371L56.6081 51.2287V52H52.5914V51.2287L53.6528 51.076L51.8583 48.4415L49.9645 51.0684L51.2626 51.2287Z" fill="white"/>
</svg>
